<svg width="32" height="32" viewBox="0 0 32 32" xmlns="http://www.w3.org/2000/svg">
  <!-- Hair - Smooth rounded curves -->
  <path d="M5 6 Q8 4, 12 5 Q14 4, 16 5 Q18 4, 20 5 Q24 4, 27 6 Q26 3, 22 2.5 Q19 2, 16 2.5 Q13 2, 10 2.5 Q6 3, 5 6 Z" 
        fill="#1C48B2" stroke="none"/>
  
  <!-- Glasses Frame - Extra rounded corners -->
  <rect x="5" y="10" width="8" height="6" rx="2.5" ry="2.5" fill="none" stroke="#1C48B2" stroke-width="1.4" stroke-linecap="round" stroke-linejoin="round"/>
  <rect x="19" y="10" width="8" height="6" rx="2.5" ry="2.5" fill="none" stroke="#1C48B2" stroke-width="1.4" stroke-linecap="round" stroke-linejoin="round"/>
  <rect x="13" y="11.5" width="6" height="3" rx="1.2" fill="#1C48B2"/>
  
  <!-- Pupils - Smooth circles -->
  <circle cx="9" cy="13" r="1.4" fill="#1C48B2"/>
  <circle cx="23" cy="13" r="1.4" fill="#1C48B2"/>
  
  <!-- Lower Face/Mustache - Smooth curves -->
  <path d="M6 18.5 Q10 20, 16 19 Q22 20, 26 18.5 Q25 21, 20.5 21.5 Q16 22, 11.5 21.5 Q7 21, 6 18.5 Z" 
        fill="#1C48B2" stroke="none"/>
  
  <!-- Bow Tie - Smooth rounded shape -->
  <path d="M11.5 23 Q13 22, 16 22.5 Q19 22, 20.5 23 Q19 24, 16 23.5 Q13 24, 11.5 23 Z" 
        fill="#1C48B2" stroke="none"/>
  <ellipse cx="16" cy="22.5" rx="1.6" ry="1.3" fill="#1C48B2"/>
  <path d="M14 24 Q16 25, 18 24" stroke="#1C48B2" stroke-width="1.2" fill="none" stroke-linecap="round" stroke-linejoin="round"/>
</svg>
